<svg xmlns="http://www.w3.org/2000/svg" xmlns:xlink="http://www.w3.org/1999/xlink" version="1.1" width="256" height="256" viewBox="0 0 256 256" xml:space="preserve">

<defs>
</defs>
<g style="stroke: none; stroke-width: 0; stroke-dasharray: none; stroke-linecap: butt; stroke-linejoin: miter; stroke-miterlimit: 10; fill: none; fill-rule: nonzero; opacity: 1;" transform="translate(1.4065934065934016 1.4065934065934016) scale(2.81 2.81)" >
	<path d="M 89.317 52.775 C 89.757 50.248 90 47.653 90 45 c 0 -0.564 -0.01 -1.125 -0.031 -1.683 c -0.138 -3.747 -3.734 -7.378 -4.734 -10.837 c -1.112 -3.848 0.275 -7.484 -1.762 -10.833 C 75.579 8.668 61.302 0 45 0 c -7.942 0 -15.404 2.058 -21.881 5.669 c -4.293 2.393 -6.153 6.469 -9.434 10.081 c -3.307 3.64 -8.026 6.824 -10.006 11.402 C 1.312 32.624 0 38.659 0 45 c 0 2.653 0.243 5.248 0.683 7.775 C 28.51 59.795 57.948 60.231 89.317 52.775 z" style="stroke: none; stroke-width: 1; stroke-dasharray: none; stroke-linecap: butt; stroke-linejoin: miter; stroke-miterlimit: 10; fill: rgb(190,235,255); fill-rule: nonzero; opacity: 1;" transform=" matrix(1 0 0 1 0 0) " stroke-linecap="round" />
	<path d="M 83.473 21.647 h -7.697 c -2.245 0 -4.178 1.312 -5.091 3.208 H 49.155 c -3.122 0 -5.652 2.531 -5.652 5.653 c 0 3.122 2.531 5.653 5.652 5.653 h 14.427 c -0.132 0.48 -0.209 0.983 -0.209 1.504 c 0 3.122 2.531 5.653 5.652 5.653 h 20.932 C 89.666 35.402 87.341 28.006 83.473 21.647 z" style="stroke: none; stroke-width: 1; stroke-dasharray: none; stroke-linecap: butt; stroke-linejoin: miter; stroke-miterlimit: 10; fill: rgb(225,249,255); fill-rule: nonzero; opacity: 1;" transform=" matrix(1 0 0 1 0 0) " stroke-linecap="round" />
	<path d="M 3.598 27.347 h 33.224 c 3.122 0 5.652 -2.531 5.652 -5.653 c 0 -3.122 -2.531 -5.653 -5.652 -5.653 h -8.13 c 1.526 -1.012 2.534 -2.744 2.534 -4.712 c 0 -3.122 -2.531 -5.653 -5.653 -5.653 h -2.45 C 14.443 10.516 7.529 18.14 3.598 27.347 z" style="stroke: none; stroke-width: 1; stroke-dasharray: none; stroke-linecap: butt; stroke-linejoin: miter; stroke-miterlimit: 10; fill: rgb(225,249,255); fill-rule: nonzero; opacity: 1;" transform=" matrix(1 0 0 1 0 0) " stroke-linecap="round" />
	<path d="M 0.683 52.775 C 4.369 73.92 22.8 90 45 90 s 40.631 -16.08 44.317 -37.225 H 0.683 z" style="stroke: none; stroke-width: 1; stroke-dasharray: none; stroke-linecap: butt; stroke-linejoin: miter; stroke-miterlimit: 10; fill: rgb(171,225,123); fill-rule: nonzero; opacity: 1;" transform=" matrix(1 0 0 1 0 0) " stroke-linecap="round" />
	<path d="M 64.843 11.258 h -0.498 c -0.239 -2.185 -2.069 -3.893 -4.319 -3.893 c -2.249 0 -4.08 1.707 -4.319 3.893 h -0.719 c -1.876 0 -3.397 1.521 -3.397 3.397 c 0 1.876 1.521 3.397 3.397 3.397 h 9.854 c 1.876 0 3.397 -1.521 3.397 -3.397 C 68.24 12.779 66.719 11.258 64.843 11.258 z" style="stroke: none; stroke-width: 1; stroke-dasharray: none; stroke-linecap: butt; stroke-linejoin: miter; stroke-miterlimit: 10; fill: rgb(225,249,255); fill-rule: nonzero; opacity: 1;" transform=" matrix(1 0 0 1 0 0) " stroke-linecap="round" />
	<path d="M 76.751 27.814 c -11.703 -17.111 -29.739 -6.321 -50.428 7.789 c -3.834 2.544 -7.073 3.845 -9.795 4.066 c 4.024 3.433 9.286 4.988 17.262 2.42 c -4.952 8.751 -12.471 15.803 -21.213 22.046 c 3.809 3.38 12.023 3.002 22.886 -4.65 c 4.039 -2.991 8.465 -4.221 12.48 -5.246 c -6.873 4.352 -10.884 9.524 -11.609 15.639 c 3.879 -2.846 7.182 -5.168 11.38 -6.288 C 60.223 60.564 85.817 48.117 76.751 27.814 z" style="stroke: none; stroke-width: 1; stroke-dasharray: none; stroke-linecap: butt; stroke-linejoin: miter; stroke-miterlimit: 10; fill: rgb(247,62,66); fill-rule: nonzero; opacity: 1;" transform=" matrix(1 0 0 1 0 0) " stroke-linecap="round" />
	<path d="M 32.133 54.683 c 3.268 -2.905 6.343 -6.175 8.247 -10.737 c 4.309 -10.678 8.354 -15.093 12.075 -19.144 l 20.095 4.442 l -5.408 17.555 c -9.198 2.494 -18.537 5.057 -22.454 4.943 c 1.748 -1.224 3.284 -2.85 4.565 -4.956 C 42.731 51.03 36.842 54.022 32.133 54.683 z" style="stroke: none; stroke-width: 1; stroke-dasharray: none; stroke-linecap: butt; stroke-linejoin: miter; stroke-miterlimit: 10; fill: rgb(249,225,48); fill-rule: nonzero; opacity: 1;" transform=" matrix(1 0 0 1 0 0) " stroke-linecap="round" />
	<circle cx="64.402" cy="32.482" r="15.092" style="stroke: none; stroke-width: 1; stroke-dasharray: none; stroke-linecap: butt; stroke-linejoin: miter; stroke-miterlimit: 10; fill: rgb(241,241,241); fill-rule: nonzero; opacity: 1;" transform="  matrix(1 0 0 1 0 0) "/>
	<path d="M 57.808 36.125 c -2.91 -5.266 -2.972 -11.395 -0.722 -16.843 c -7.283 4.036 -9.923 13.209 -5.895 20.499 s 13.199 9.938 20.492 5.92 C 65.874 44.705 60.718 41.391 57.808 36.125 z" style="stroke: none; stroke-width: 1; stroke-dasharray: none; stroke-linecap: butt; stroke-linejoin: miter; stroke-miterlimit: 10; fill: rgb(219,219,219); fill-rule: nonzero; opacity: 1;" transform=" matrix(1 0 0 1 0 0) " stroke-linecap="round" />
	<path d="M 77.177 25.008 l -3.298 2.161 l -5.935 -1.353 l -2.16 -3.91 l 3.429 -3.434 c -0.358 -0.123 -0.72 -0.229 -1.086 -0.324 l -3.391 3.396 l -4.739 0.551 l -2.492 -2.719 c -0.087 0.046 -0.175 0.088 -0.261 0.136 c -0.214 0.118 -0.424 0.242 -0.63 0.369 l 2.591 2.826 l -1.018 5.16 l -2.228 1.914 l 0 0 l -2.611 2.243 l -3.607 -1.589 c 0 0.001 0 0.003 -0.001 0.004 c -0.203 1.613 -0.166 3.147 0.089 4.61 c 0.007 0.037 0.013 0.074 0.02 0.111 c 0.011 0.062 0.021 0.125 0.034 0.187 c 0.017 0.085 0.036 0.17 0.054 0.254 c 0.033 0.15 0.067 0.3 0.104 0.449 c 0.001 0.003 0.002 0.007 0.002 0.01 c 0.014 0.057 0.028 0.114 0.043 0.17 c 0 0 0 0 0 0 c 0 0 0 0 0 0 c 0.052 0.198 0.108 0.396 0.169 0.593 c 0.006 0.018 0.011 0.037 0.016 0.055 c 0.071 0.226 0.148 0.451 0.23 0.675 c 0.009 0.023 0.018 0.046 0.027 0.07 c 0.035 0.093 0.073 0.184 0.11 0.277 c 0.032 0.08 0.062 0.16 0.095 0.24 c 0.004 0.01 0.008 0.021 0.012 0.031 c 0.03 0.072 0.062 0.145 0.094 0.217 c 0.053 0.12 0.108 0.24 0.164 0.359 c 0.006 0.013 0.012 0.027 0.018 0.04 c 0.001 0.002 0.002 0.004 0.003 0.006 c 0.037 0.078 0.074 0.156 0.112 0.234 c 0.099 0.2 0.201 0.398 0.31 0.595 l 3.059 -2.126 l 6.232 2.298 l 1.884 3.41 l -1.94 3.582 c 0.334 0.087 0.67 0.166 1.01 0.229 l 1.788 -3.3 l 5.167 -1.131 l 2.448 3.076 c 0.155 -0.079 0.31 -0.156 0.463 -0.241 c 0.144 -0.08 0.283 -0.164 0.423 -0.248 l -2.614 -3.284 l 0.425 -4.207 l 5.219 -3.882 l 3.723 2.331 c 0.008 -0.032 0.017 -0.063 0.025 -0.095 c 0.027 -0.106 0.051 -0.212 0.075 -0.318 c 0.348 -1.541 0.452 -3.139 0.292 -4.734 c -0.008 -0.074 -0.016 -0.148 -0.025 -0.222 c -0.011 -0.096 -0.024 -0.191 -0.037 -0.287 c -0.259 -1.775 -0.861 -3.55 -1.803 -5.323 C 77.233 25.103 77.205 25.056 77.177 25.008 z M 64.179 35.706 l -3.39 3.044 l -5.919 -2.183 l -0.887 -3.772 l 2.138 -1.836 l 0 0 l 2.685 -2.307 l 4.459 2.021 L 64.179 35.706 z M 74.474 32.954 l -5.362 3.988 l -3.955 -1.431 l -0.912 -5.023 l 3.611 -3.669 l 5.56 1.268 L 74.474 32.954 z" style="stroke: none; stroke-width: 1; stroke-dasharray: none; stroke-linecap: butt; stroke-linejoin: miter; stroke-miterlimit: 10; fill: rgb(53,73,94); fill-rule: nonzero; opacity: 1;" transform=" matrix(1 0 0 1 0 0) " stroke-linecap="round" />
	<path d="M 71.7 45.692 c -7.284 4.025 -16.484 1.373 -20.509 -5.911 c -4.025 -7.284 -1.373 -16.484 5.911 -20.509 c 7.284 -4.025 16.484 -1.373 20.509 5.911 C 81.636 32.467 78.985 41.667 71.7 45.692 z M 57.528 20.042 c -6.86 3.79 -9.357 12.454 -5.567 19.314 c 3.79 6.86 12.454 9.357 19.314 5.567 s 9.357 -12.454 5.567 -19.314 S 64.388 16.252 57.528 20.042 z" style="stroke: none; stroke-width: 1; stroke-dasharray: none; stroke-linecap: butt; stroke-linejoin: miter; stroke-miterlimit: 10; fill: rgb(53,73,94); fill-rule: nonzero; opacity: 1;" transform=" matrix(1 0 0 1 0 0) " stroke-linecap="round" />
	<path d="M 59.091 38.124 l -4.222 -1.557 l -0.887 -3.772 l 1.95 -1.675 c -0.082 -0.377 -0.153 -0.754 -0.211 -1.134 l -2.373 2.039 l -3.607 -1.589 c 0 0.001 0 0.003 -0.001 0.004 c -0.203 1.613 -0.166 3.147 0.089 4.61 c 0.007 0.037 0.013 0.074 0.02 0.111 c 0.011 0.062 0.021 0.125 0.034 0.187 c 0.017 0.085 0.036 0.17 0.054 0.254 c 0.033 0.15 0.067 0.3 0.104 0.449 c 0.001 0.003 0.002 0.007 0.002 0.01 c 0.014 0.057 0.028 0.114 0.043 0.17 c 0 0 0 0 0 0 c 0 0 0 0 0 0 c 0.052 0.198 0.108 0.396 0.169 0.593 c 0.006 0.018 0.011 0.037 0.016 0.055 c 0.071 0.226 0.148 0.451 0.23 0.675 c 0.009 0.023 0.018 0.046 0.027 0.07 c 0.035 0.093 0.073 0.184 0.11 0.277 c 0.032 0.08 0.062 0.16 0.095 0.24 c 0.004 0.01 0.008 0.021 0.012 0.031 c 0.03 0.072 0.062 0.145 0.094 0.217 c 0.053 0.12 0.108 0.24 0.164 0.359 c 0.006 0.013 0.012 0.027 0.018 0.04 c 0.001 0.002 0.002 0.004 0.003 0.006 c 0.037 0.078 0.074 0.156 0.112 0.234 c 0.099 0.2 0.201 0.398 0.31 0.595 l 3.059 -2.126 l 5.833 2.15 C 59.898 39.165 59.482 38.657 59.091 38.124 z" style="stroke: none; stroke-width: 1; stroke-dasharray: none; stroke-linecap: butt; stroke-linejoin: miter; stroke-miterlimit: 10; fill: rgb(44,62,80); fill-rule: nonzero; opacity: 1;" transform=" matrix(1 0 0 1 0 0) " stroke-linecap="round" />
	<path d="M 56.613 19.882 l 0.172 0.187 c 0.046 -0.124 0.094 -0.248 0.142 -0.371 C 56.822 19.759 56.716 19.818 56.613 19.882 z" style="stroke: none; stroke-width: 1; stroke-dasharray: none; stroke-linecap: butt; stroke-linejoin: miter; stroke-miterlimit: 10; fill: rgb(44,62,80); fill-rule: nonzero; opacity: 1;" transform=" matrix(1 0 0 1 0 0) " stroke-linecap="round" />
	<path d="M 71.023 45.57 l 0.071 0.089 c 0.035 -0.018 0.07 -0.037 0.104 -0.054 C 71.14 45.594 71.081 45.582 71.023 45.57 z" style="stroke: none; stroke-width: 1; stroke-dasharray: none; stroke-linecap: butt; stroke-linejoin: miter; stroke-miterlimit: 10; fill: rgb(44,62,80); fill-rule: nonzero; opacity: 1;" transform=" matrix(1 0 0 1 0 0) " stroke-linecap="round" />
	<path d="M 63.479 43.714 l 1.578 -0.345 c -1.447 -0.811 -2.787 -1.797 -3.98 -2.96 l 1.544 2.795 l -1.94 3.582 c 0.334 0.087 0.67 0.166 1.01 0.229 L 63.479 43.714 z" style="stroke: none; stroke-width: 1; stroke-dasharray: none; stroke-linecap: butt; stroke-linejoin: miter; stroke-miterlimit: 10; fill: rgb(44,62,80); fill-rule: nonzero; opacity: 1;" transform=" matrix(1 0 0 1 0 0) " stroke-linecap="round" />
	<path d="M 70.297 45.41 c -6.685 3.054 -14.723 0.483 -18.336 -6.054 c -3.612 -6.538 -1.51 -14.711 4.633 -18.745 c 0.151 -0.446 0.311 -0.89 0.492 -1.329 c -0.227 0.126 -0.45 0.257 -0.668 0.392 c -0.027 0.017 -0.053 0.035 -0.08 0.052 c -0.189 0.119 -0.376 0.241 -0.558 0.367 c -0.126 0.088 -0.248 0.18 -0.371 0.271 c -0.078 0.058 -0.159 0.114 -0.236 0.173 c -5.566 4.295 -7.476 12.004 -4.387 18.455 c 0.127 0.265 0.26 0.528 0.404 0.789 c 0.141 0.255 0.29 0.503 0.443 0.747 c 3.814 6.06 11.366 8.552 17.97 6.122 c 0.061 -0.022 0.121 -0.049 0.182 -0.072 c 0.173 -0.066 0.346 -0.132 0.517 -0.205 c 0.181 -0.077 0.359 -0.161 0.538 -0.245 c 0.052 -0.024 0.104 -0.046 0.156 -0.071 c 0.218 -0.106 0.435 -0.219 0.651 -0.337 c 0.012 -0.006 0.024 -0.012 0.036 -0.018 C 71.216 45.621 70.755 45.52 70.297 45.41 z" style="stroke: none; stroke-width: 1; stroke-dasharray: none; stroke-linecap: butt; stroke-linejoin: miter; stroke-miterlimit: 10; fill: rgb(44,62,80); fill-rule: nonzero; opacity: 1;" transform=" matrix(1 0 0 1 0 0) " stroke-linecap="round" />
	<path d="M 71.736 45.757 c -7.32 4.044 -16.565 1.38 -20.61 -5.94 s -1.38 -16.565 5.94 -20.61 s 16.565 -1.38 20.61 5.94 C 81.721 32.467 79.056 41.713 71.736 45.757 z M 57.139 19.337 c -7.248 4.005 -9.887 13.16 -5.882 20.408 s 13.16 9.887 20.408 5.882 s 9.887 -13.16 5.882 -20.408 C 73.542 17.97 64.387 15.332 57.139 19.337 z" style="stroke: none; stroke-width: 1; stroke-dasharray: none; stroke-linecap: butt; stroke-linejoin: miter; stroke-miterlimit: 10; fill: rgb(53,73,94); fill-rule: nonzero; opacity: 1;" transform=" matrix(1 0 0 1 0 0) " stroke-linecap="round" />
</g>
</svg>