<svg xmlns="http://www.w3.org/2000/svg" xmlns:xlink="http://www.w3.org/1999/xlink" version="1.1" width="256" height="256" viewBox="0 0 256 256" xml:space="preserve">

<defs>
</defs>
<g style="stroke: none; stroke-width: 0; stroke-dasharray: none; stroke-linecap: butt; stroke-linejoin: miter; stroke-miterlimit: 10; fill: none; fill-rule: nonzero; opacity: 1;" transform="translate(1.4065934065934016 1.4065934065934016) scale(2.81 2.81)" >
	<path d="M 44.793 4.226 L 44.793 4.226 c -1.136 0 -2.153 0.632 -2.657 1.651 l -9.57 19.393 c -0.08 0.163 -0.236 0.275 -0.415 0.301 l -21.402 3.11 c -1.124 0.163 -2.04 0.936 -2.391 2.016 s -0.064 2.244 0.75 3.037 l 15.485 15.095 c 0.13 0.127 0.189 0.309 0.159 0.487 L 21.097 70.63 c -0.192 1.119 0.259 2.23 1.178 2.897 c 0.918 0.667 2.114 0.754 3.121 0.227 l 19.142 -10.065 c 0.08 -0.041 0.167 -0.063 0.255 -0.063 C 50.257 46.401 49.102 26.056 44.793 4.226 z" style="stroke: none; stroke-width: 1; stroke-dasharray: none; stroke-linecap: butt; stroke-linejoin: miter; stroke-miterlimit: 10; fill: rgb(255,203,104); fill-rule: nonzero; opacity: 1;" transform=" matrix(1 0 0 1 0 0) " stroke-linecap="round" />
	<path d="M 44.793 4.226 L 44.793 4.226 c 1.136 0 2.153 0.632 2.657 1.651 l 9.57 19.393 c 0.08 0.163 0.236 0.275 0.415 0.301 l 21.401 3.11 c 1.124 0.163 2.04 0.936 2.391 2.016 c 0.351 1.08 0.064 2.244 -0.75 3.037 L 64.992 48.829 c -0.13 0.127 -0.189 0.309 -0.159 0.487 L 68.49 70.63 c 0.192 1.119 -0.259 2.23 -1.178 2.897 c -0.918 0.667 -2.114 0.754 -3.121 0.227 L 45.049 63.689 c -0.08 -0.041 -0.167 -0.063 -0.255 -0.063 C 38.355 46.96 39.793 26.476 44.793 4.226 z" style="stroke: none; stroke-width: 1; stroke-dasharray: none; stroke-linecap: butt; stroke-linejoin: miter; stroke-miterlimit: 10; fill: rgb(255,218,119); fill-rule: nonzero; opacity: 1;" transform=" matrix(1 0 0 1 0 0) " stroke-linecap="round" />
	<ellipse cx="30.243000000000002" cy="43.268" rx="3.553" ry="4.878" style="stroke: none; stroke-width: 1; stroke-dasharray: none; stroke-linecap: butt; stroke-linejoin: miter; stroke-miterlimit: 10; fill: rgb(255,135,152); fill-rule: nonzero; opacity: 1;" transform=" matrix(0.5 -0.866 0.866 0.5 -22.3483 47.8249) "/>
	<ellipse cx="59.338" cy="43.263" rx="4.878" ry="3.553" style="stroke: none; stroke-width: 1; stroke-dasharray: none; stroke-linecap: butt; stroke-linejoin: miter; stroke-miterlimit: 10; fill: rgb(255,135,152); fill-rule: nonzero; opacity: 1;" transform=" matrix(0.866 -0.5 0.5 0.866 -13.683 35.4676) "/>
	<path d="M 65.573 75.097 c -0.629 0 -1.261 -0.151 -1.846 -0.458 l -18.934 -9.955 L 25.86 74.638 c -1.346 0.706 -2.945 0.591 -4.174 -0.303 c -1.228 -0.892 -1.832 -2.377 -1.576 -3.875 l 3.616 -21.081 L 8.41 34.45 c -1.088 -1.061 -1.472 -2.617 -1.002 -4.062 c 0.47 -1.445 1.695 -2.478 3.198 -2.697 l 21.168 -3.076 l 9.465 -19.181 c 0.674 -1.363 2.035 -2.209 3.554 -2.209 c 1.519 0 2.88 0.846 3.553 2.208 l 9.467 19.181 l 21.167 3.076 c 1.503 0.219 2.728 1.252 3.198 2.696 c 0.47 1.445 0.086 3.001 -1.002 4.062 c 0 0 0 0 0 0 L 65.858 49.381 l 3.616 21.08 c 0.258 1.498 -0.346 2.983 -1.575 3.876 C 67.205 74.841 66.391 75.096 65.573 75.097 z M 44.794 62.627 c 0.25 0 0.499 0.062 0.72 0.177 l 19.143 10.065 c 0.664 0.348 1.458 0.291 2.066 -0.15 c 0.609 -0.442 0.907 -1.178 0.78 -1.92 l -3.656 -21.313 c -0.086 -0.506 0.082 -1.019 0.448 -1.374 l 15.483 -15.094 c 0.539 -0.525 0.729 -1.296 0.496 -2.011 c -0.232 -0.716 -0.84 -1.228 -1.583 -1.336 l -21.401 -3.11 c -0.507 -0.075 -0.942 -0.392 -1.168 -0.849 L 46.553 6.32 c -0.333 -0.674 -1.008 -1.094 -1.76 -1.094 c -0.752 0 -1.427 0.419 -1.76 1.094 l -9.57 19.392 c -0.227 0.457 -0.662 0.773 -1.166 0.848 l -21.404 3.11 c -0.744 0.108 -1.351 0.62 -1.583 1.335 c -0.233 0.716 -0.042 1.487 0.497 2.012 l 15.485 15.096 c 0.367 0.358 0.533 0.872 0.445 1.375 l -3.655 21.31 c -0.127 0.742 0.172 1.478 0.78 1.919 c 0.608 0.442 1.401 0.5 2.069 0.15 l 19.14 -10.063 c 0.219 -0.116 0.469 -0.178 0.721 -0.178 C 44.793 62.627 44.793 62.627 44.794 62.627 z M 44.793 63.624 h 0.01 H 44.793 z M 65.691 49.544 L 65.691 49.544 L 65.691 49.544 z M 23.766 49.147 c 0 0.001 0 0.002 0 0.002 V 49.147 z M 80.477 33.734 h 0.01 H 80.477 z" style="stroke: none; stroke-width: 1; stroke-dasharray: none; stroke-linecap: butt; stroke-linejoin: miter; stroke-miterlimit: 10; fill: rgb(0,0,0); fill-rule: nonzero; opacity: 1;" transform=" matrix(1 0 0 1 0 0) " stroke-linecap="round" />
	<path d="M 32.737 40.11 c -0.552 0 -1 -0.448 -1 -1 v -2.735 c 0 -0.552 0.448 -1 1 -1 s 1 0.448 1 1 v 2.735 C 33.737 39.662 33.29 40.11 32.737 40.11 z" style="stroke: none; stroke-width: 1; stroke-dasharray: none; stroke-linecap: butt; stroke-linejoin: miter; stroke-miterlimit: 10; fill: rgb(0,0,0); fill-rule: nonzero; opacity: 1;" transform=" matrix(1 0 0 1 0 0) " stroke-linecap="round" />
	<path d="M 56.848 40.11 c -0.553 0 -1 -0.448 -1 -1 v -2.735 c 0 -0.552 0.447 -1 1 -1 s 1 0.448 1 1 v 2.735 C 57.848 39.662 57.4 40.11 56.848 40.11 z" style="stroke: none; stroke-width: 1; stroke-dasharray: none; stroke-linecap: butt; stroke-linejoin: miter; stroke-miterlimit: 10; fill: rgb(0,0,0); fill-rule: nonzero; opacity: 1;" transform=" matrix(1 0 0 1 0 0) " stroke-linecap="round" />
	<circle cx="44.797" cy="42.677" r="5.577" style="stroke: none; stroke-width: 1; stroke-dasharray: none; stroke-linecap: butt; stroke-linejoin: miter; stroke-miterlimit: 10; fill: rgb(255,255,255); fill-rule: nonzero; opacity: 1;" transform="  matrix(1 0 0 1 0 0) "/>
	<path d="M 44.792 49.255 c -3.626 0 -6.577 -2.95 -6.577 -6.577 c 0 -0.495 -0.059 -0.994 -0.115 -1.476 c -0.146 -1.249 -0.297 -2.54 0.628 -3.579 c 0.949 -1.067 2.763 -1.522 6.063 -1.522 c 3.301 0 5.115 0.456 6.064 1.522 c 0.925 1.04 0.774 2.331 0.628 3.579 c -0.056 0.482 -0.114 0.981 -0.114 1.476 C 51.37 46.305 48.419 49.255 44.792 49.255 z M 44.792 38.101 c -3.15 0 -4.224 0.463 -4.57 0.852 c -0.312 0.351 -0.255 0.995 -0.135 2.017 c 0.06 0.514 0.128 1.097 0.128 1.708 c 0 2.524 2.053 4.577 4.577 4.577 c 2.524 0 4.578 -2.053 4.578 -4.577 c 0 -0.611 0.068 -1.194 0.128 -1.708 c 0.12 -1.022 0.177 -1.666 -0.136 -2.017 C 49.017 38.564 47.943 38.101 44.792 38.101 z" style="stroke: none; stroke-width: 1; stroke-dasharray: none; stroke-linecap: butt; stroke-linejoin: miter; stroke-miterlimit: 10; fill: rgb(0,0,0); fill-rule: nonzero; opacity: 1;" transform=" matrix(1 0 0 1 0 0) " stroke-linecap="round" />
	<path d="M 27.099 19.732 c -0.307 0 -0.609 -0.14 -0.805 -0.406 L 14.185 2.94 c -0.328 -0.444 -0.234 -1.07 0.21 -1.398 c 0.445 -0.329 1.07 -0.234 1.398 0.21 l 12.108 16.387 c 0.328 0.444 0.234 1.07 -0.21 1.398 C 27.513 19.669 27.305 19.732 27.099 19.732 z" style="stroke: none; stroke-width: 1; stroke-dasharray: none; stroke-linecap: butt; stroke-linejoin: miter; stroke-miterlimit: 10; fill: rgb(0,0,0); fill-rule: nonzero; opacity: 1;" transform=" matrix(1 0 0 1 0 0) " stroke-linecap="round" />
	<path d="M 62.486 19.732 c -0.206 0 -0.414 -0.063 -0.594 -0.196 c -0.443 -0.328 -0.538 -0.954 -0.21 -1.398 L 73.792 1.751 c 0.329 -0.444 0.952 -0.539 1.399 -0.21 c 0.443 0.328 0.538 0.954 0.21 1.398 L 63.292 19.326 C 63.096 19.592 62.793 19.732 62.486 19.732 z" style="stroke: none; stroke-width: 1; stroke-dasharray: none; stroke-linecap: butt; stroke-linejoin: miter; stroke-miterlimit: 10; fill: rgb(0,0,0); fill-rule: nonzero; opacity: 1;" transform=" matrix(1 0 0 1 0 0) " stroke-linecap="round" />
	<path d="M 89 57.141 c -0.096 0 -0.194 -0.014 -0.291 -0.043 l -15.801 -4.812 c -0.528 -0.161 -0.826 -0.72 -0.666 -1.248 c 0.161 -0.527 0.718 -0.825 1.248 -0.666 l 15.801 4.812 c 0.528 0.161 0.826 0.72 0.666 1.248 C 89.825 56.863 89.428 57.141 89 57.141 z" style="stroke: none; stroke-width: 1; stroke-dasharray: none; stroke-linecap: butt; stroke-linejoin: miter; stroke-miterlimit: 10; fill: rgb(0,0,0); fill-rule: nonzero; opacity: 1;" transform=" matrix(1 0 0 1 0 0) " stroke-linecap="round" />
	<path d="M 1 58.184 c -0.419 0 -0.81 -0.266 -0.949 -0.686 c -0.174 -0.524 0.11 -1.09 0.635 -1.264 l 15.612 -5.171 c 0.526 -0.173 1.09 0.11 1.264 0.635 c 0.174 0.524 -0.11 1.09 -0.635 1.264 L 1.315 58.133 C 1.21 58.167 1.104 58.184 1 58.184 z" style="stroke: none; stroke-width: 1; stroke-dasharray: none; stroke-linecap: butt; stroke-linejoin: miter; stroke-miterlimit: 10; fill: rgb(0,0,0); fill-rule: nonzero; opacity: 1;" transform=" matrix(1 0 0 1 0 0) " stroke-linecap="round" />
	<path d="M 44.792 88.654 c -0.552 0 -1 -0.447 -1 -1 V 72.309 c 0 -0.553 0.448 -1 1 -1 s 1 0.447 1 1 v 15.345 C 45.792 88.207 45.345 88.654 44.792 88.654 z" style="stroke: none; stroke-width: 1; stroke-dasharray: none; stroke-linecap: butt; stroke-linejoin: miter; stroke-miterlimit: 10; fill: rgb(0,0,0); fill-rule: nonzero; opacity: 1;" transform=" matrix(1 0 0 1 0 0) " stroke-linecap="round" />
</g>
</svg>