<svg xmlns="http://www.w3.org/2000/svg" xmlns:xlink="http://www.w3.org/1999/xlink" version="1.1" width="256" height="256" viewBox="0 0 256 256" xml:space="preserve">

<defs>
</defs>
<g style="stroke: none; stroke-width: 0; stroke-dasharray: none; stroke-linecap: butt; stroke-linejoin: miter; stroke-miterlimit: 10; fill: none; fill-rule: nonzero; opacity: 1;" transform="translate(1.4065934065934016 1.4065934065934016) scale(2.81 2.81)" >
	<polygon points="47.59,25.9 43.86,6.01 19.55,10.57 22.43,25.9 " style="stroke: none; stroke-width: 1; stroke-dasharray: none; stroke-linecap: butt; stroke-linejoin: miter; stroke-miterlimit: 10; fill: rgb(252,218,65); fill-rule: nonzero; opacity: 1;" transform="  matrix(1 0 0 1 0 0) "/>
	<path d="M 47.594 26.9 H 22.426 c -0.481 0 -0.894 -0.343 -0.983 -0.815 l -2.878 -15.325 c -0.049 -0.261 0.008 -0.53 0.157 -0.749 c 0.15 -0.219 0.38 -0.37 0.641 -0.418 l 24.311 -4.565 c 0.544 -0.102 1.065 0.256 1.167 0.798 l 3.734 19.89 c 0.056 0.292 -0.022 0.594 -0.213 0.823 C 48.174 26.768 47.892 26.9 47.594 26.9 z M 23.255 24.9 h 23.133 L 43.061 7.177 l -22.345 4.196 L 23.255 24.9 z" style="stroke: none; stroke-width: 1; stroke-dasharray: none; stroke-linecap: butt; stroke-linejoin: miter; stroke-miterlimit: 10; fill: rgb(0,0,0); fill-rule: nonzero; opacity: 1;" transform=" matrix(1 0 0 1 0 0) " stroke-linecap="round" />
	<polygon points="66.01,25.9 69.04,11.35 55.72,8.58 52.12,25.9 " style="stroke: none; stroke-width: 1; stroke-dasharray: none; stroke-linecap: butt; stroke-linejoin: miter; stroke-miterlimit: 10; fill: rgb(185,207,71); fill-rule: nonzero; opacity: 1;" transform="  matrix(1 0 0 1 0 0) "/>
	<path d="M 66.012 26.9 H 52.115 c -0.301 0 -0.586 -0.136 -0.775 -0.369 c -0.19 -0.233 -0.265 -0.54 -0.203 -0.835 l 3.607 -17.323 c 0.054 -0.259 0.209 -0.487 0.431 -0.632 s 0.494 -0.197 0.752 -0.143 l 13.319 2.774 c 0.54 0.113 0.888 0.642 0.774 1.183 l -3.03 14.548 C 66.895 26.567 66.485 26.9 66.012 26.9 z M 53.345 24.9 h 11.854 l 2.661 -12.773 L 56.498 9.76 L 53.345 24.9 z" style="stroke: none; stroke-width: 1; stroke-dasharray: none; stroke-linecap: butt; stroke-linejoin: miter; stroke-miterlimit: 10; fill: rgb(0,0,0); fill-rule: nonzero; opacity: 1;" transform=" matrix(1 0 0 1 0 0) " stroke-linecap="round" />
	<polygon points="58.53,9.16 58.53,1 37.79,1 37.79,7.15 43.86,6.01 47.59,25.9 52.12,25.9 55.72,8.58 " style="stroke: none; stroke-width: 1; stroke-dasharray: none; stroke-linecap: butt; stroke-linejoin: miter; stroke-miterlimit: 10; fill: rgb(71,207,193); fill-rule: nonzero; opacity: 1;" transform="  matrix(1 0 0 1 0 0) "/>
	<path d="M 52.115 26.9 h -4.521 c -0.481 0 -0.894 -0.343 -0.982 -0.815 L 43.061 7.177 l -5.085 0.955 c -0.294 0.053 -0.594 -0.023 -0.823 -0.213 c -0.229 -0.19 -0.361 -0.472 -0.361 -0.77 V 1 c 0 -0.552 0.448 -1 1 -1 h 20.735 c 0.553 0 1 0.448 1 1 v 8.161 c 0 0.301 -0.136 0.586 -0.369 0.776 c -0.233 0.191 -0.542 0.265 -0.835 0.203 l -1.824 -0.38 l -3.404 16.344 C 52.998 26.567 52.589 26.9 52.115 26.9 z M 48.424 24.9 h 2.878 l 3.442 -16.527 c 0.054 -0.259 0.209 -0.487 0.431 -0.632 s 0.494 -0.197 0.752 -0.143 l 1.6 0.333 V 2 H 38.791 v 3.944 l 4.883 -0.917 c 0.544 -0.102 1.065 0.256 1.167 0.798 L 48.424 24.9 z" style="stroke: none; stroke-width: 1; stroke-dasharray: none; stroke-linecap: butt; stroke-linejoin: miter; stroke-miterlimit: 10; fill: rgb(0,0,0); fill-rule: nonzero; opacity: 1;" transform=" matrix(1 0 0 1 0 0) " stroke-linecap="round" />
	<polyline points="14.33,25.9 9.77,89 80.23,89 75.67,25.9 14.33,25.9 " style="stroke: none; stroke-width: 1; stroke-dasharray: none; stroke-linecap: butt; stroke-linejoin: miter; stroke-miterlimit: 10; fill: rgb(223,55,72); fill-rule: nonzero; opacity: 1;" transform="  matrix(1 0 0 1 0 0) "/>
	<path d="M 80.235 90 H 9.765 c -0.278 0 -0.543 -0.115 -0.732 -0.319 c -0.189 -0.203 -0.286 -0.476 -0.266 -0.753 l 4.563 -63.1 c 0.038 -0.523 0.473 -0.928 0.998 -0.928 h 61.344 c 0.524 0 0.96 0.405 0.997 0.928 l 4.563 63.1 c 0.021 0.277 -0.076 0.55 -0.265 0.753 C 80.778 89.885 80.513 90 80.235 90 z M 10.839 88 H 79.16 l -4.419 -61.1 H 15.258 L 10.839 88 z" style="stroke: none; stroke-width: 1; stroke-dasharray: none; stroke-linecap: butt; stroke-linejoin: miter; stroke-miterlimit: 10; fill: rgb(0,0,0); fill-rule: nonzero; opacity: 1;" transform=" matrix(1 0 0 1 0 0) " stroke-linecap="round" />
	<path d="M 45 71.738 c -8.55 0 -15.506 -6.956 -15.506 -15.506 V 41.727 c 0 -0.552 0.448 -1 1 -1 s 1 0.448 1 1 v 14.506 c 0 7.447 6.059 13.506 13.506 13.506 s 13.506 -6.059 13.506 -13.506 V 41.727 c 0 -0.552 0.447 -1 1 -1 s 1 0.448 1 1 v 14.506 C 60.506 64.782 53.55 71.738 45 71.738 z" style="stroke: none; stroke-width: 1; stroke-dasharray: none; stroke-linecap: butt; stroke-linejoin: miter; stroke-miterlimit: 10; fill: rgb(0,0,0); fill-rule: nonzero; opacity: 1;" transform=" matrix(1 0 0 1 0 0) " stroke-linecap="round" />
	<path d="M 34.604 42.727 h -8.291 c -0.552 0 -1 -0.448 -1 -1 s 0.448 -1 1 -1 h 8.291 c 0.552 0 1 0.448 1 1 S 35.156 42.727 34.604 42.727 z" style="stroke: none; stroke-width: 1; stroke-dasharray: none; stroke-linecap: butt; stroke-linejoin: miter; stroke-miterlimit: 10; fill: rgb(0,0,0); fill-rule: nonzero; opacity: 1;" transform=" matrix(1 0 0 1 0 0) " stroke-linecap="round" />
	<path d="M 63.651 42.727 H 55.36 c -0.553 0 -1 -0.448 -1 -1 s 0.447 -1 1 -1 h 8.291 c 0.553 0 1 0.448 1 1 S 64.204 42.727 63.651 42.727 z" style="stroke: none; stroke-width: 1; stroke-dasharray: none; stroke-linecap: butt; stroke-linejoin: miter; stroke-miterlimit: 10; fill: rgb(0,0,0); fill-rule: nonzero; opacity: 1;" transform=" matrix(1 0 0 1 0 0) " stroke-linecap="round" />
</g>
</svg>